Coordinates
version=1
nRows=9
nColumns=24
inDegrees=yes

Units are S.I. units (second, meters, Newtons, ...)
If the header above contains a line with 'inDegrees', this indicates whether rotational values are in degrees (yes) or radians (no).

endheader
time	pelvis_tilt	pelvis_list	pelvis_rotation	pelvis_tx	pelvis_ty	pelvis_tz	hip_flexion_r	hip_adduction_r	hip_rotation_r	knee_angle_r	ankle_angle_r	subtalar_angle_r	mtp_angle_r	hip_flexion_l	hip_adduction_l	hip_rotation_l	knee_angle_l	ankle_angle_l	subtalar_angle_l	mtp_angle_l	lumbar_extension	lumbar_bending	lumbar_rotation
      1.00000000	      0.70672656	      1.87684308	      1.90052129	      0.59916608	      1.03732722	      0.03956848	      0.69098656	     -0.99331551	     -3.17444118	    -10.43595634	      7.53248455	     -0.00000081	      0.00000000	     23.00103219	     -1.01640268	     -3.55043214	    -56.84162531	      0.20457236	     -0.00000148	      0.00000000	    -16.28957642	      0.27151693	     -1.10463191
      1.01700000	      0.78204614	      1.88483081	      1.65501551	      0.59733571	      1.03724306	      0.04066532	     -0.83503736	     -0.86290585	     -3.04453190	     -9.60449075	      7.89991464	     -0.00000078	      0.00000000	     23.66902833	     -1.00549656	     -4.01152719	    -52.59626188	      0.47990380	     -0.00000274	      0.00000000	    -16.43632888	      0.09321221	     -0.77620467
      1.03300000	      0.82997330	      1.69665745	      1.45647676	      0.59541782	      1.03669970	      0.04188256	     -2.40841570	     -0.51716632	     -3.00208415	     -8.61010189	      8.16135139	     -0.00000094	      0.00000000	     24.15520526	     -1.35879124	     -4.80671355	    -47.85119207	      0.46349676	     -0.00000396	      0.00000000	    -16.61532181	      0.16716653	     -0.44185131
      1.05000000	      1.00555726	      1.37151880	      1.31276160	      0.59353416	      1.03599974	      0.04263317	     -4.08837312	     -0.05830911	     -2.98501286	     -7.69930754	      8.43050417	     -0.00000094	      0.00000000	     24.26269358	     -1.85476708	     -5.83040633	    -42.60837371	      0.15608157	     -0.00000519	      0.00000000	    -16.96850702	      0.39901209	     -0.29288638
      1.06700000	      0.92066745	      0.79003985	      0.97165224	      0.59148458	      1.03423516	      0.04361013	     -5.38384383	      0.63374360	     -2.68615800	     -6.94898419	      8.74348893	     -0.00000095	      0.00000000	     24.50109000	     -2.64812306	     -7.14406264	    -37.14406956	     -0.32873373	     -0.00000621	      0.00000000	    -16.83529538	      0.88998710	      0.23000382
      1.08300000	      0.87557988	      0.40845184	      0.68933765	      0.58984034	      1.03226619	      0.04395855	     -6.80885271	      1.05374190	     -2.29497822	     -6.12852877	      9.07864305	     -0.00000113	      0.00000000	     24.41064462	     -3.04750732	     -8.50382378	    -31.26437369	     -1.04895537	     -0.00000677	      0.00000000	    -16.92062778	      1.09102329	      0.43219654
      1.10000000	      0.74617577	     -0.13659861	      0.39196106	      0.58858363	      1.02974029	      0.04454120	     -8.22054080	      1.64193066	     -1.87613929	     -5.22560966	      9.33628506	     -0.00000093	      0.00000000	     24.40367822	     -3.46888916	     -9.51614649	    -25.56415129	     -1.68870181	     -0.00000655	      0.00000000	    -16.77781873	      1.51582120	      0.86927390
      1.11700000	      0.57284726	     -0.59127028	      0.11343289	      0.58732044	      1.02687060	      0.04483274	     -9.46062258	      2.10259184	     -1.33284384	     -4.62878085	      9.76487608	     -0.00000090	      0.00000000	     24.32017950	     -3.58788499	     -9.90215995	    -19.82863256	     -2.22509328	     -0.00000597	      0.00000000	    -16.68443830	      1.88331496	      0.97474461
      1.13300000	      0.45176987	     -1.10967381	     -0.41290892	      0.58580178	      1.02374521	      0.04493052	    -10.59917158	      2.53402577	     -0.52144014	     -4.32460737	     10.28717552	     -0.00000087	      0.00000000	     24.20752033	     -3.77024561	     -9.74229660	    -14.52168217	     -2.43887234	     -0.00000479	      0.00000000	    -16.64868526	      2.15991747	      1.48092373
